<?xml version="1.0" encoding="UTF-8" standalone="no"?><svg width="15" height="16" viewBox="0 0 15 16" fill="none" xmlns="http://www.w3.org/2000/svg">
<g id="Group 11056">
<circle id="Ellipse 48" cx="7.5" cy="7.5" r="7.5" fill="#D9D9D9"/>
<g id="Group 11055">
<path id="Vector 132" d="M7.57454 14.6671C8.70526 11.6707 9.74239 10.5107 12.4516 9.55878C11.8598 13.0631 10.5963 13.9562 7.57454 14.6671ZM7.57454 14.6671C6.60816 11.5842 5.3997 10.5639 2.47583 9.55878C3.51031 13.3803 4.78701 14.1928 7.57454 14.6671Z" stroke="#F0F0F0"/>
<path id="Vector 131" d="M8.90455 7.33774L8.2395 6.44934" stroke="#F0F0F0"/>
<path id="Vector 130" d="M6.09644 7.41177L6.83538 6.44934" stroke="#F0F0F0"/>
<path id="Vector 127" d="M7.50046 14.667V7.93001M7.50046 6.59742C7.0442 6.58476 6.78723 6.52694 6.31815 5.93112M7.50046 6.59742C8.07727 6.50704 8.36304 6.4005 8.68277 5.93112M7.50046 6.59742V7.93001M6.31815 5.93112C6.25334 5.2914 6.23321 4.93693 6.76152 4.45045M6.31815 5.93112C5.75204 6.05003 5.44634 6.13105 4.61858 5.93112C4.32504 5.6895 4.13656 5.56579 4.10132 4.45045C4.24718 4.24289 4.33406 4.12267 4.84026 3.63608C5.30229 3.53567 5.56048 3.53146 6.02257 3.63608C6.44276 3.92759 6.53319 4.12028 6.76152 4.45045M6.31815 5.93112C5.67511 6.14266 5.32504 6.27253 4.98805 6.81951C4.84317 7.60293 4.97528 7.87392 5.28363 8.30017C5.75282 8.75473 6.0851 8.77375 6.76152 8.52227C7.12144 8.33081 7.29426 8.19807 7.50046 7.93001M6.76152 4.45045C7.37047 4.25864 7.68908 4.28905 8.2394 4.45045M6.76152 4.45045C6.42803 3.96486 6.29256 3.65346 6.31815 2.89575C6.51044 2.38094 6.68915 2.14872 7.35267 2.00735C8.47299 1.97226 8.57317 2.32389 8.83055 2.89575C8.83695 3.64565 8.6574 3.95606 8.2394 4.45045M8.2394 4.45045L9.12613 3.63608C9.64558 3.42858 9.9368 3.4042 10.4562 3.63608C10.8512 3.86831 10.9376 4.0586 10.9735 4.45045C11.065 5.26105 10.9234 5.59858 10.2345 5.93112C9.69474 6.05949 9.34135 6.03278 8.68277 5.93112M8.2394 4.45045C8.47928 4.72386 8.61511 4.9376 8.68277 5.13729M8.68277 5.93112C9.29304 6.16099 9.6065 6.34464 10.0868 6.81951C10.1773 7.48812 10.104 7.82046 9.64339 8.30017C9.45195 8.40055 9.38383 8.45865 8.38719 8.52227C8.03757 8.48408 7.85779 8.33919 7.50046 7.93001M8.68277 5.93112C8.74429 5.62567 8.76941 5.39299 8.68277 5.13729M8.68277 5.13729L9.64339 4.82061" stroke="#F0F0F0"/>
<path id="Vector 129" d="M5.28369 4.82062L6.24432 5.11675" stroke="#F0F0F0"/>
<path id="Vector 128" d="M7.42676 3.11786V4.30239" stroke="#F0F0F0"/>
</g>
</g>
</svg>
