<?xml version="1.0" encoding="UTF-8" standalone="no"?><svg width="15" height="16" viewBox="0 0 15 16" fill="none" xmlns="http://www.w3.org/2000/svg">
<circle cx="7.5" cy="7.5" r="7.5" fill="#D9D9D9"/>
<path d="M7.36817 14.4802C7.45771 12.5888 6.44712 11.4235 2.53955 8.96562C2.21743 11.178 3.01125 12.3924 7.36817 14.4802ZM7.36817 14.4802C7.22399 12.732 7.81098 11.923 12.3526 8.96562C12.8957 11.3732 11.2 12.519 7.36817 14.4802ZM7.36817 14.4802V7.65953M7.36817 7.65953C5.3156 7.38222 5.16854 5.74553 5.26538 2.43521C5.63045 2.64514 5.94067 2.82747 6.19995 2.98564M7.36817 7.65953C9.67728 7.2732 9.66339 5.56736 9.93824 2.43521C9.4244 2.5939 9.01113 2.73119 8.61427 2.91385M8.77003 5.48273C8.53638 5.41017 7.73468 3.81797 7.0177 3.95897M7.0177 3.95897C7.49185 3.90391 7.32694 3.6731 6.19995 2.98564M7.0177 3.95897C7.63707 3.44817 8.11257 3.14476 8.61427 2.91385M6.19995 2.98564C6.54727 2.4293 6.79941 2.15272 7.44605 1.78217C7.98287 2.14097 8.22495 2.34609 8.4585 2.72545L8.61427 2.91385" stroke="#F0F0F0"/>
</svg>
